<svg width="104" height="57" viewBox="0 0 104 57" fill="none" xmlns="http://www.w3.org/2000/svg">
<path d="M28.5995 29.7374C28.5995 29.7374 28.2879 30.3728 27.5608 30.4081C26.8338 30.4081 25.6566 29.4903 25.4489 29.3138C25.2412 29.1374 23.4755 27.2666 22.1252 26.7018C20.775 26.137 19.0439 26.0664 17.5551 26.9489C17.5551 26.9489 14.4046 28.5726 12.535 34.2909C10.6654 40.0091 10.6308 44.6332 12.6389 46.2922C14.6469 47.9512 17.0012 46.6804 18.5938 46.0098C20.1864 45.3391 22.8176 43.7154 23.7178 43.6448C24.618 43.5742 25.1719 43.786 24.8603 45.3744C24.5487 46.9628 22.2637 53.0694 21.6751 53.9518C21.6751 53.9518 19.7363 55.5402 17.1051 56.3168C14.4392 57.0933 12.0503 57.0227 9.90373 56.5639C7.75718 56.105 5.29904 54.6225 3.08324 52.1869C0.867451 49.7514 -0.448176 44.7744 0.140394 38.8443C0.728964 32.9142 4.12189 26.3488 8.03415 22.3248C11.9464 18.3009 15.4432 16.9596 18.8708 16.8184C22.3329 16.6772 26.6607 18.5833 29.1881 22.0072C29.1881 22.0072 29.3958 22.3248 29.4304 22.5719C29.3958 22.5719 29.6381 28.3961 28.5995 29.7374Z" fill="#58CBFB"/>
<path d="M46.1526 17.9127L36.4932 56.8464H30.469C30.469 56.8464 27.6992 56.9523 26.9376 55.9287C26.1759 54.905 26.349 53.9873 26.7991 51.7988C27.2492 49.6103 33.6196 23.7369 33.6196 23.7369C33.6196 23.7369 34.5197 20.1365 35.3507 19.2188C36.1816 18.301 37.2548 17.8774 39.159 17.8774H46.1526V17.9127Z" fill="#58CBFB"/>
<path d="M44.387 0.54575C44.387 0.54575 47.4683 0.404558 49.0609 2.13416C50.6535 3.86376 50.0649 5.87574 49.4417 6.86408C48.8186 7.81713 47.1567 10.4998 42.0327 10.4998C36.9087 10.4998 36.8394 7.11117 36.8394 6.5464C36.8394 6.5464 36.8048 4.8168 38.2935 3.22839C39.7823 1.67528 41.548 0.54575 44.387 0.54575Z" fill="#58CBFB"/>
<path d="M53.458 17.9129H48.5763L46.499 26.4197H51.3807L43.7292 56.8819H51.5191C51.5191 56.8819 54.8428 57.0231 55.9854 52.5402C57.1625 48.0574 62.4596 26.455 62.4596 26.455H66.8566C66.8566 26.455 68.1376 26.455 68.5877 26.102C69.0724 25.7491 69.5225 25.6079 69.9033 24.1606C70.2841 22.6781 71.0112 19.819 71.0112 19.819C71.0112 19.819 71.2536 18.9718 70.7689 18.513C70.7689 18.513 70.2149 17.9482 69.1416 17.9482H64.8139L68.3453 4.1467C68.3453 4.1467 68.7262 2.91127 68.2068 1.99353C67.6529 1.07578 66.6835 0.6875 65.0563 0.6875C63.3944 0.6875 61.4556 1.42876 60.2438 1.88763C59.0667 2.3818 57.7511 3.26425 57.1279 4.1114L53.458 17.9129Z" fill="#58CBFB"/>
<path d="M61.2825 45.5509V52.2222C61.2825 52.2222 61.7325 52.2928 62.702 51.6928C63.6714 51.128 69.0031 46.751 69.7648 46.3628C70.5265 46.0098 72.3961 44.9156 74.0233 46.6452C75.6505 48.3748 77.2777 50.8809 78.1433 51.8693C79.0434 52.8929 79.1473 52.9635 79.7012 53.5636C80.2206 54.1636 81.5708 55.5049 83.7174 56.105C85.8639 56.7051 89.88 57.3404 94.9002 55.7167C99.9204 54.093 101.34 53.3518 102.725 51.4104C104.144 49.469 103.625 46.0451 103.348 45.5509C103.071 45.092 103.002 44.6685 103.002 44.6685C103.002 44.6685 102.24 44.7038 101.478 45.092C100.717 45.5156 99.6434 46.0098 98.7086 46.4687C97.7738 46.9628 94.3809 47.8806 94.0693 47.9512C93.7577 48.0218 91.992 48.1277 91.4726 47.8453C90.9533 47.5982 90.2955 47.1393 89.88 46.504C89.4646 45.9039 88.4606 44.1743 88.1836 43.433C87.872 42.6918 87.1795 41.2799 86.9372 39.8326C86.6948 38.3501 86.0024 36.8676 85.5869 36.5499C85.1715 36.2323 83.3712 35.2086 81.3977 34.6438C79.4589 34.0791 78.2125 34.4321 77.7624 34.6438C77.347 34.8556 76.1006 35.3498 75.4081 35.7734C74.7157 36.197 70.4919 38.8443 68.0337 40.5033C65.5756 42.1623 63.2905 43.7154 62.5635 44.2802C61.871 44.9508 61.6287 45.092 61.2825 45.5509Z" fill="#58CBFB"/>
<path d="M85.8985 15.2297C85.8985 15.2297 81.7785 16.6769 79.5973 18.4065C77.4162 20.1361 77.2777 20.242 77.0699 21.901C76.8622 23.56 77.4162 25.5367 79.4242 26.1014C81.4323 26.6662 83.9597 26.4191 85.3099 26.172C86.6602 25.925 89.7761 24.7601 91.0571 23.6659C92.3381 22.607 93.0306 20.9832 93.2037 20.7009C93.4114 20.4185 93.6191 19.536 94.0692 18.6183C94.5193 17.7005 95.0386 16.8534 95.0386 15.8297C95.0386 14.8061 94.8309 13.6413 92.3728 13.6766C89.9492 13.6766 87.4565 14.6296 85.8985 15.2297Z" fill="#58CBFB"/>
<path d="M61.2825 45.5509V52.2222C61.2825 52.2222 61.7325 52.2928 62.702 51.6928C63.6714 51.128 69.0031 46.751 69.7648 46.3628C70.5265 46.0098 72.3961 44.9156 74.0233 46.6452C75.6505 48.3748 77.2777 50.8809 78.1433 51.8693C79.0434 52.8929 79.1473 52.9635 79.7012 53.5636C80.2206 54.1636 81.5708 55.5049 83.7174 56.105C85.8639 56.7051 89.88 57.3404 94.9002 55.7167C99.9204 54.093 101.34 53.3518 102.725 51.4104C104.144 49.469 103.625 46.0451 103.348 45.5509C103.071 45.092 103.002 44.6685 103.002 44.6685C103.002 44.6685 102.24 44.7038 101.478 45.092C100.717 45.5156 99.6434 46.0098 98.7086 46.4687C97.7738 46.9628 94.3809 47.8806 94.0693 47.9512C93.7577 48.0218 91.992 48.1277 91.4726 47.8453C90.9533 47.5982 90.2955 47.1393 89.88 46.504C89.4646 45.9039 88.4606 44.1743 88.1836 43.433C87.872 42.6918 87.1795 41.2799 86.9372 39.8326C86.6948 38.3501 86.0024 36.8676 85.5869 36.5499C85.1715 36.2323 83.3712 35.2086 81.3977 34.6438C79.4589 34.0791 78.2125 34.4321 77.7624 34.6438C77.347 34.8556 76.1006 35.3498 75.4081 35.7734C74.7157 36.197 70.4919 38.8443 68.0337 40.5033C65.5756 42.1623 63.2905 43.7154 62.5635 44.2802C61.871 44.9508 61.6287 45.092 61.2825 45.5509Z" fill="#58CBFB"/>
<path d="M85.8985 15.2297C85.8985 15.2297 81.7785 16.6769 79.5973 18.4065C77.4162 20.1361 77.2777 20.242 77.0699 21.901C76.8622 23.56 77.4162 25.5367 79.4242 26.1014C81.4323 26.6662 83.9597 26.4191 85.3099 26.172C86.6602 25.925 89.7761 24.7601 91.0571 23.6659C92.3381 22.607 93.0306 20.9832 93.2037 20.7009C93.4114 20.4185 93.6191 19.536 94.0692 18.6183C94.5193 17.7005 95.0386 16.8534 95.0386 15.8297C95.0386 14.8061 94.8309 13.6413 92.3728 13.6766C89.9492 13.6766 87.4565 14.6296 85.8985 15.2297Z" fill="#58CBFB"/>
<path d="M61.2825 45.5509V52.2222C61.2825 52.2222 61.7325 52.2928 62.702 51.6928C63.6714 51.128 69.0031 46.751 69.7648 46.3628C70.5265 46.0098 72.3961 44.9156 74.0233 46.6452C75.6505 48.3748 77.2777 50.8809 78.1433 51.8693C79.0434 52.8929 79.1473 52.9635 79.7012 53.5636C80.2206 54.1636 81.5708 55.5049 83.7174 56.105C85.8639 56.7051 89.88 57.3404 94.9002 55.7167C99.9204 54.093 101.34 53.3518 102.725 51.4104C104.144 49.469 103.625 46.0451 103.348 45.5509C103.071 45.092 103.002 44.6685 103.002 44.6685C103.002 44.6685 102.24 44.7038 101.478 45.092C100.717 45.5156 99.6434 46.0098 98.7086 46.4687C97.7738 46.9628 94.3809 47.8806 94.0693 47.9512C93.7577 48.0218 91.992 48.1277 91.4726 47.8453C90.9533 47.5982 90.2955 47.1393 89.88 46.504C89.4646 45.9039 88.4606 44.1743 88.1836 43.433C87.872 42.6918 87.1795 41.2799 86.9372 39.8326C86.6948 38.3501 86.0024 36.8676 85.5869 36.5499C85.1715 36.2323 83.3712 35.2086 81.3977 34.6438C79.4589 34.0791 78.2125 34.4321 77.7624 34.6438C77.347 34.8556 76.1006 35.3498 75.4081 35.7734C74.7157 36.197 70.4919 38.8443 68.0337 40.5033C65.5756 42.1623 63.2905 43.7154 62.5635 44.2802C61.871 44.9508 61.6287 45.092 61.2825 45.5509Z" fill="#58CBFB"/>
<path d="M85.8985 15.2297C85.8985 15.2297 81.7785 16.6769 79.5973 18.4065C77.4162 20.1361 77.2777 20.242 77.0699 21.901C76.8622 23.56 77.4162 25.5367 79.4242 26.1014C81.4323 26.6662 83.9597 26.4191 85.3099 26.172C86.6602 25.925 89.7761 24.7601 91.0571 23.6659C92.3381 22.607 93.0306 20.9832 93.2037 20.7009C93.4114 20.4185 93.6191 19.536 94.0692 18.6183C94.5193 17.7005 95.0386 16.8534 95.0386 15.8297C95.0386 14.8061 94.8309 13.6413 92.3728 13.6766C89.9146 13.6766 87.4565 14.6296 85.8985 15.2297Z" fill="#58CBFB"/>
</svg>
